<?xml version="1.0" encoding="UTF-8"?>
<svg id="Layer_1" xmlns="http://www.w3.org/2000/svg" version="1.1" viewBox="0 0 171.15 62.86">
  <!-- Generator: Adobe Illustrator 29.7.1, SVG Export Plug-In . SVG Version: 2.1.1 Build 8)  -->
  <defs>
    <style>
      .st0 {
        fill: #39c6f4;
      }

      .st1 {
        fill: #fff;
      }

      .st2 {
        fill: #e5e5e5;
      }
    </style>
  </defs>
  <g id="LB_Pressed">
    <path class="st0" d="M134.22.76C92-4.86,38.28,22.22,20,32.13c-.27.17-.56.32-.83.47-.08.06-.16.11-.25.16-.18.09-.35.2-.53.31-.09.06-.19.12-.29.16-.14.11-.29.21-.45.3l-.29.18c-.13.1-.27.19-.42.27l-.27.21-.4.27-.25.19c-.13.09-.25.18-.37.29-.09.05-.17.11-.25.17l-.4.29-.22.19c-.12.1-.23.18-.35.29-.07.06-.14.12-.2.19-.12.09-.24.18-.34.29-.05.06-.11.11-.18.16l-.33.32-.17.16c-.1.12-.2.23-.32.33-.04.05-.08.1-.12.15-.12.11-.23.22-.33.35-.03.04-.07.08-.11.12-.11.12-.22.26-.31.37l-.1.1-.31.41-.07.08c-.11.14-.22.29-.32.45h0s-.22.33-.33.47S108.58-2.17,132.89,5.45c15.53,4.87,27.22,15.33,32.8,18.23l3.42-6.35c-12.42-3.55-27.04-15.53-34.89-16.57Z"/>
    <g>
      <path class="st2" d="M166.17,24l.46.19-.46-.19Z"/>
      <path class="st0" d="M165.69,23.72c-5.58-2.88-17.26-13.36-32.81-18.23C108.67-2.07,11.57,39.58,10.9,39.86c-5,7.44-2.21,15.33-10.84,23H0C33.16,45,99.17,24.75,118.75,28.53c9.12,1.76,19.9,12.09,31.08,24.76l15.85-29.58h0Z"/>
      <path class="st1" d="M165.69,23.72l.48.25-.48-.25Z"/>
    </g>
    <path class="st1" d="M150.55,54.1c.24.3.47.57.73.84l16.38-30.54,3.49-6.53c-.34-.07-.68-.13-1-.23s-.68-.19-1-.27l-3.42,6.34-15.9,29.59.72.8h0"/>
  </g>
</svg>