<?xml version="1.0" encoding="UTF-8"?>
<svg id="Layer_1" xmlns="http://www.w3.org/2000/svg" version="1.1" viewBox="0 0 750 630.46">
  <!-- Generator: Adobe Illustrator 29.7.1, SVG Export Plug-In . SVG Version: 2.1.1 Build 8)  -->
  <defs>
    <style>
      .st0 {
        fill: #fff;
      }

      .st1 {
        fill: #ff0002;
      }
    </style>
  </defs>
  <g>
    <path class="st1" d="M664.37,214c-6.72-16.68-20.54-20.88-21.82-22-11.7-10.34-2.47-21.22-19.95-30.7-18.28-9.91-72-37-114.22-31.37-9.22,1.23-27.83,17.6-41.21,17.6h-184.33c-13.38,0-32-16.37-41.22-17.6-42.24-5.63-95.93,21.46-114.22,31.37-17.47,9.48-8.24,20.36-19.94,30.7-1.28,1.12-15.1,5.32-21.82,22C22.89,370-1.74,469.11.09,529.13c2.91,94.42,76.58,101.33,76.58,101.33,37-8.62,111.55-129.14,168.54-129.14h259.59c57,0,131.5,120.52,168.54,129.14,0,0,73.68-6.91,76.56-101.33,1.87-60.02-22.81-159.13-85.53-315.13Z"/>
    <path class="st1" d="M548.36,115l50.43,6.84c-12.06-116.84-42.97-111.08-49.71-116.37-.4-.32-.8-.62-1.21-.9-6.42-4.48-13.57-4.88-25.87-4.43-10.78.4-12,11.44-12.14,15.19v1.23c1.76,31,1.76,62.09,0,93.09,9.79,2.26,37.72,5.21,38.5,5.35Z"/>
    <path class="st1" d="M201.68,115s28.61-3,38.53-5.3c-1.76-31-1.76-62.09,0-93.09v-1.28c-.12-3.75-1.36-14.79-12.21-15.19-12.25-.45-19.4-.05-25.81,4.43-.41.28-.81.58-1.21.89-6.76,5.3-37.65-.49-49.72,116.33l50.4-6.84.02.05Z"/>
  </g>
  <g>
    <path class="st0" d="M184.22,353.41v-44.81h12.94c16.52,0,24.78,7.28,24.78,21.84,0,6.92-2.29,12.48-6.88,16.67-4.59,4.19-10.73,6.29-18.44,6.3h-12.4ZM191.62,314.91v32.22h5.94c5.23,0,9.3-1.44,12.21-4.31,2.91-2.87,4.36-6.94,4.35-12.19,0-10.48-5.43-15.72-16.28-15.72h-6.22Z"/>
    <path class="st0" d="M233,314.69c-1.13.02-2.22-.39-3.05-1.15-.83-.75-1.29-1.82-1.26-2.94-.04-1.14.42-2.23,1.26-3,.82-.78,1.92-1.21,3.05-1.19,1.16-.03,2.28.4,3.12,1.19.85.76,1.33,1.86,1.29,3,0,1.1-.46,2.16-1.29,2.89-.84.8-1.96,1.23-3.12,1.2ZM236.59,353.41h-7.25v-32h7.25v32Z"/>
    <path class="st0" d="M244,352.41v-6.72c2.56,2.02,5.74,3.11,9,3.1,4.38,0,6.56-1.3,6.56-3.88.02-.66-.17-1.32-.56-1.86-.42-.54-.93-1.01-1.52-1.36-.71-.43-1.46-.79-2.25-1.06l-2.89-1.06c-1.21-.48-2.4-1.03-3.54-1.66-.98-.52-1.86-1.2-2.63-2-.69-.73-1.23-1.58-1.58-2.52-.37-1.05-.55-2.16-.53-3.28-.03-1.44.36-2.85,1.1-4.08.74-1.21,1.74-2.23,2.93-3,1.29-.82,2.71-1.44,4.19-1.81,1.58-.41,3.21-.62,4.85-.61,2.7-.04,5.39.41,7.93,1.35v6.34c-2.28-1.55-4.99-2.36-7.75-2.31-.84-.01-1.67.08-2.48.28-.67.16-1.3.42-1.89.78-.49.3-.91.71-1.22,1.2-.29.46-.44,1-.44,1.55-.02.61.13,1.22.44,1.75.33.52.77.95,1.3,1.26.65.41,1.34.74,2.06,1,.8.31,1.72.63,2.77,1,1.26.51,2.5,1.08,3.7,1.72,1.02.53,1.96,1.21,2.8,2,.76.73,1.36,1.6,1.78,2.56.44,1.1.65,2.28.62,3.46.04,1.49-.35,2.97-1.12,4.25-.76,1.22-1.78,2.24-3,3-1.33.83-2.8,1.42-4.33,1.76-1.69.39-3.43.59-5.17.58-3.13.09-6.25-.5-9.13-1.73Z"/>
    <path class="st0" d="M296.53,351.94c-2.78,1.54-5.92,2.3-9.09,2.22-4.75,0-8.58-1.48-11.5-4.45-2.97-3.09-4.55-7.26-4.38-11.55,0-5.27,1.57-9.51,4.71-12.7,3.14-3.19,7.33-4.79,12.57-4.8,2.65-.05,5.29.47,7.72,1.53v6.75c-2.03-1.6-4.54-2.48-7.12-2.5-2.84-.09-5.58,1.04-7.53,3.11-2.02,2.22-3.07,5.15-2.94,8.14-.16,2.88.84,5.7,2.76,7.85,1.96,1.96,4.66,3,7.43,2.87,2.71-.04,5.31-1.02,7.37-2.78v6.31Z"/>
    <path class="st0" d="M317.91,354.16c-4.94,0-8.88-1.49-11.83-4.48s-4.42-6.95-4.42-11.89c0-5.38,1.54-9.58,4.61-12.6,3.07-3.02,7.21-4.53,12.42-4.53s8.9,1.47,11.69,4.41,4.19,7.01,4.18,12.22c0,5.1-1.5,9.19-4.51,12.26s-7.05,4.61-12.14,4.61ZM318.25,326.44c-2.59-.1-5.07,1.01-6.72,3-1.64,2-2.47,4.71-2.47,8.19-.16,2.86.73,5.67,2.5,7.92,1.67,1.93,4.14,2.99,6.69,2.89,2.52.14,4.96-.91,6.58-2.84,1.53-1.9,2.3-4.6,2.29-8.1s-.77-6.22-2.29-8.15c-1.6-1.97-4.05-3.05-6.58-2.91Z"/>
    <path class="st0" d="M370.44,353.41h-7.25v-18c0-6-2.12-9-6.35-9-2.1-.05-4.12.87-5.46,2.49-1.47,1.75-2.24,3.98-2.16,6.26v18.25h-7.28v-32h7.28v5.31h.12c2.03-3.82,6.05-6.17,10.38-6.06,3.48,0,6.13,1.13,8,3.39s2.75,5.53,2.75,9.8l-.03,19.56Z"/>
    <path class="st0" d="M407.78,353.41h-7.25v-18c0-6-2.11-9-6.34-9-2.11-.05-4.12.87-5.47,2.49-1.47,1.75-2.24,3.98-2.16,6.26v18.25h-7.28v-32h7.28v5.31h.13c2.02-3.83,6.04-6.17,10.37-6.06,3.48,0,6.15,1.13,8,3.39s2.77,5.53,2.75,9.8l-.03,19.56Z"/>
    <path class="st0" d="M443.72,339.38h-21.81c-.08,2.56.91,5.04,2.73,6.84,1.99,1.7,4.56,2.56,7.17,2.41,3.38.01,6.68-1.06,9.41-3.06v5.84c-2.92,1.83-6.77,2.74-11.56,2.75-4.79,0-8.48-1.45-11.08-4.36-2.67-2.9-4-6.99-4-12.26,0-4.98,1.47-9.04,4.42-12.18,2.82-3.08,6.83-4.79,11-4.7,4.37,0,7.75,1.41,10.15,4.22,2.4,2.81,3.6,6.72,3.6,11.72v2.78h-.03ZM436.72,334.26c.11-2.18-.54-4.33-1.84-6.08-1.24-1.46-3.09-2.26-5-2.17-2.01-.04-3.94.79-5.3,2.28-1.52,1.66-2.45,3.76-2.67,6l14.81-.03Z"/>
    <path class="st0" d="M473.53,351.94c-2.78,1.54-5.92,2.3-9.09,2.22-4.75,0-8.58-1.48-11.5-4.45-2.97-3.09-4.55-7.26-4.38-11.55,0-5.27,1.57-9.51,4.71-12.7,3.14-3.19,7.33-4.79,12.57-4.8,2.65-.05,5.29.47,7.72,1.53v6.75c-2.03-1.6-4.54-2.48-7.12-2.5-2.84-.09-5.58,1.04-7.53,3.11-2.02,2.22-3.07,5.15-2.94,8.14-.16,2.88.84,5.7,2.76,7.85,1.96,1.96,4.66,3,7.43,2.87,2.71-.04,5.31-1.02,7.37-2.78v6.31Z"/>
    <path class="st0" d="M497.59,353.07c-1.76.77-3.67,1.14-5.59,1.06-6.21,0-9.31-2.98-9.31-8.94v-18.09h-5.35v-5.69h5.35v-7.41l7.25-2.06v9.47h7.65v5.69h-7.65v16c-.14,1.43.21,2.86,1,4.06.91.9,2.17,1.35,3.44,1.22,1.15.03,2.28-.35,3.18-1.06l.03,5.75Z"/>
    <path class="st0" d="M530.56,339.38h-21.81c-.08,2.56.91,5.04,2.73,6.84,1.99,1.7,4.57,2.56,7.18,2.41,3.38.01,6.67-1.06,9.4-3.06v5.84c-2.91,1.83-6.77,2.74-11.56,2.75-4.79,0-8.49-1.45-11.08-4.36-2.67-2.9-4-6.99-4-12.26,0-4.98,1.47-9.04,4.42-12.18,2.82-3.08,6.83-4.79,11-4.7,4.38,0,7.77,1.41,10.16,4.22s3.59,6.72,3.59,11.72v2.78h-.03ZM523.56,334.26c.12-2.18-.53-4.33-1.84-6.08-1.24-1.46-3.09-2.26-5-2.17-2.01-.03-3.94.8-5.3,2.28-1.52,1.66-2.45,3.76-2.67,6l14.81-.03Z"/>
    <path class="st0" d="M566.56,353.41h-7.25v-5.41h-.12c-3.52,5.95-11.19,7.92-17.14,4.4-1.15-.68-2.18-1.54-3.05-2.54-2.36-2.86-3.54-6.76-3.54-11.7,0-5.29,1.31-9.53,3.92-12.72,2.53-3.15,6.41-4.92,10.45-4.78,4.31,0,7.45,1.73,9.41,5.19h.12v-19.85h7.25l-.05,47.41ZM559.41,338.79v-4.19c.05-2.14-.75-4.22-2.22-5.78-1.45-1.58-3.52-2.45-5.66-2.38-2.49-.11-4.88,1.01-6.39,3-1.55,2-2.33,4.83-2.33,8.41-.15,2.75.64,5.46,2.24,7.7,1.43,1.86,3.66,2.91,6,2.83,2.31.06,4.53-.95,6-2.73,1.59-1.92,2.43-4.36,2.36-6.86Z"/>
  </g>
</svg>