<?xml version="1.0" encoding="UTF-8"?>
<svg id="Layer_1" xmlns="http://www.w3.org/2000/svg" version="1.1" viewBox="0 0 168.77 83.38">
  <!-- Generator: Adobe Illustrator 29.7.1, SVG Export Plug-In . SVG Version: 2.1.1 Build 8)  -->
  <defs>
    <style>
      .st0 {
        fill: #39c6f4;
      }

      .st1 {
        fill: #fff;
      }

      .st2 {
        opacity: .06;
      }

      .st3 {
        fill: #a2def9;
      }
    </style>
  </defs>
  <g>
    <g>
      <path class="st1" d="M168.77,41.7c0,23.02-18.68,41.69-41.7,41.68-23.02,0-41.69-18.68-41.68-41.7C85.4,18.66,104.05,0,127.07,0c23.02-.01,41.69,18.64,41.7,41.66v.04Z"/>
      <path class="st3" d="M127.07,0h-2.01l1,20h1V0h.01ZM123.07.19h-.31c-.56.06-1.12.13-1.67.21l2.84,19.79c.35,0,.69-.09,1-.12L123.07.19ZM119.12.76h-.52c-.48.1-1,.2-1.44.32l4.74,19.43c.33-.08.67-.16,1-.22l-3.78-19.53ZM115.23,1.76l-.8.24h-.12l-.93.31,6.59,18.88c.32-.11.65-.22,1-.31l-5.74-19.17v.05ZM111.46,3c-.62.25-1.23.52-1.84.8l8.38,18.2c.32-.15.63-.29,1-.42l-7.54-18.58ZM107.83,4.7c-.59.31-1.18.63-1.75,1l10.09,17.28c.29-.18.6-.35.9-.51l-9.24-17.77ZM104.38,6.7c-.56.36-1.11.73-1.66,1.13l11.7,16.22.86-.59-10.9-16.74v-.02ZM101.13,9.03c-.52.42-1.03.85-1.53,1.29l13.18,15c.27-.23.53-.45.81-.67l-12.46-15.6v-.02ZM98.13,11.67l-.84.84h0l-.43.45,14.56,13.71c.24-.25.49-.5.74-.74l-14.04-14.24v-.02ZM95.38,14.6h0c-.38.45-.74.9-1.1,1.36h0l15.8,12.26c.21-.27.44-.54.66-.81l-15.2-13-.16.19ZM92.93,17.76l-.15.23h0c-.32.46-.63.92-.93,1.39l16.9,10.7c.19-.29.38-.59.58-.87l-16.4-11.45ZM90.79,21.14l-.45.81h0c-.17.31-.33.62-.49.93l17.85,9c.15-.31.32-.62.49-.92l-17.4-9.87v.05ZM89,24.71l-.2.45h0v.06h0v.06h0c-.18.42-.35.84-.52,1.27l18.63,7.26c.13-.32.26-.64.4-1l-18.31-8.1ZM87.55,28.43c-.09.27-.18.54-.26.81h0c-.06.18-.11.36-.16.55l19.24,5.43c.1-.33.2-.66.31-1l-19-6.35-.13.56ZM86.46,32.28c-.12.53-.23,1.06-.33,1.59,0,.13-.05.25-.07.37l19.68,3.55c.06-.34.13-.68.21-1l-19.49-4.5h0ZM85.75,36.22l-.15,1.28h0l-.06.59,19.93,1.66c0-.35.07-.7.12-1l-19.84-2.6v.07ZM85.42,40.22v1h0v.06h0v.24h0v.4l20-.23h0v-.78l-20-.71v.02ZM105.42,43.04l-20,1.18c0,.57.08,1.14.13,1.7h0v.18l19.89-2.13c0-.34-.07-.69-.09-1l.07.07ZM105.65,45.12l-19.76,3.06h0c.09.53.18,1.05.28,1.57h0v.17l19.59-4c-.07-.34-.13-.67-.18-1l.07.2ZM106.06,47.12l-19.37,5c.17.65.35,1.29.54,1.93l19.11-5.9c-.1-.33-.19-.67-.28-1v-.03ZM106.67,49.12l-18.8,6.81c.23.63.47,1.25.73,1.87l18.45-7.72c-.13-.32-.26-.64-.38-1v.04ZM107.47,51.02l-18.06,8.58c0,.07.07.15.11.22h0c.17.37.36.73.55,1.1h0l.17.32,17.63-9.45c-.16-.31-.32-.62-.47-.93l.07.16ZM108.47,52.85l-17.17,10.27.3.48h0c.24.38.49.77.74,1.14l16.66-11.03c-.19-.29-.38-.58-.56-.88l.03.02ZM109.63,54.58l-16.11,11.87.23.3h0c.23.3.47.6.71.89l15.5-12.64c-.22-.27-.44-.55-.64-.83l.31.41ZM110.95,56.2l-14.9,13.35c.45.49.9,1,1.37,1.45l14.23-14.06c-.25-.24-.49-.5-.72-.76l.02.02ZM112.42,57.69l-13.56,14.7.76.68h.06l.67.57,12.82-15.35c-.27-.22-.54-.46-.79-.69l.04.09ZM114,59l-12.07,16,.93.68.69.48,11.3-16.5-.85-.66ZM115.72,60.18l-10.49,17,.1.07h0c.5.3,1,.6,1.52.88h0l9.66-17.51-.9-.52.11.08ZM117.54,61.18l-8.81,18,.34.17h.16c.42.2.84.39,1.27.57l7.93-18.36c-.31-.13-.63-.28-.94-.43l.05.05ZM119.44,62l-7,18.72c.63.24,1.25.45,1.89.66l6.13-19-1-.34-.02-.04ZM121.44,62.63l-5.23,19.37.24.06h.2c.5.13,1,.25,1.5.36l4.26-19.55c-.34-.07-.67-.15-1-.24h.03ZM123.44,63.07l-3.31,19.73c.5.08,1,.16,1.51.22l.47.06,2.36-19.86c-.35,0-.69-.09-1-.15h-.03ZM125.51,63.32l-1.41,20h2.03l.47-20h-1.09ZM128.67,63.32l-1,.05.47,20h.69l1.19-.06h.12l-1.42-20h-.05ZM130.74,63.07c-.34.06-.69.11-1,.15l2.37,19.86c.62-.08,1.23-.16,1.83-.26h.15l-3.32-19.73-.03-.02ZM132.74,62.63c-.33.09-.67.17-1,.24l4.26,19.55h.42l.76-.18h.36l.46-.24-5.2-19.32-.06-.05ZM134.74,62l-1,.34,6.14,19,.92-.31h.2l.77-.29-7-18.71-.03-.03ZM136.64,61.17l-.94.44,7.92,18.39c.35-.15.7-.3,1-.47h.16l.61-.29-8.81-18,.06-.07ZM138.46,60.17c-.3.18-.6.36-.9.52l9.67,17.51.18-.1h.1c.47-.26.92-.53,1.37-.8l-10.49-17,.07-.13ZM140.16,59c-.28.21-.56.42-.85.61l11.3,16.5c.25-.17.51-.35.75-.53h.15l.6-.45-11.95-16.13ZM141.76,57.66c-.25.24-.52.47-.78.69l12.82,15.35h.34c.34-.28.66-.57,1-.86h.06l-13.44-15.18h0ZM143.23,56.17c-.23.26-.47.52-.72.77l14.23,14h0c.31-.32.62-.64.92-1h0l.32-.35-14.75-13.42h0ZM144.55,54.56c-.2.27-.42.55-.64.82l15.5,12.62h0c.2-.26.41-.52.61-.79h0l.36-.47-15.83-12.18h0ZM145.71,52.82c-.18.3-.37.59-.56.88l16.64,11.1.14-.21h0c.31-.47.61-.95.9-1.43h0l-17.12-10.34h0ZM146.71,50.99c-.15.32-.31.63-.47.93l17.63,9.45.27-.51c.14-.28.28-.55.41-.83h0c0-.11.1-.22.16-.33l-18.02-8.7h.02ZM147.51,49.09c-.12.32-.25.64-.38,1l18.45,7.71.29-.69h0c.14-.36.27-.71.4-1.06l-18.8-6.81.04-.15ZM148.11,47.09c-.08.33-.18.67-.28,1l19.1,5.91.12-.41h0l.33-1.21-19.38-5,.11-.29ZM148.53,45.09c0,.34-.12.68-.18,1l19.59,4c.11-.57.22-1.15.31-1.72v-.25l-19.76-3.07.04.04ZM148.75,43.01c0,.35,0,.7-.08,1l19.88,2.13c0-.24.05-.47.07-.71h0c0-.38.06-.76.08-1.14v-.06l-20-1.18.05-.04ZM168.75,40.19l-20,.71v1.1l20,.23v-.43h0v-.09h0v-.17h0v-.34h0v-.44h0v-.09h0v-.15h0v-.33ZM168.42,36.19l-19.83,2.61c0,.34.08.69.11,1l19.93-1.66v-.47h0c0-.46-.1-.92-.16-1.37l-.05-.11ZM167.71,32.26l-19.49,4.5c.08.33.15.68.21,1l19.68-3.56-.18-.95h0l-.06-.32h0v-.06h0l-.06-.24-.1-.37ZM166.62,28.41l-19,6.36c.11.33.21.66.3,1l19.25-5.44h0c-.14-.49-.29-1-.45-1.46h0c0-.1-.07-.19-.1-.29v-.17ZM165.17,24.68l-18.27,8.17c.14.32.27.64.4,1l18.63-7.27c-.24-.62-.5-1.24-.77-1.85v-.05ZM163.36,21.11l-17.36,9.89c.17.3.34.61.49.92l17.85-9c-.27-.52-.54-1-.83-1.55h0l-.15-.26ZM161.22,17.74l-16.36,11.5c.2.28.39.57.58.86l16.89-10.7-.13-.2h0l-.66-1h0l-.27-.38-.05-.08ZM158.77,14.58l-15.19,13c.22.26.44.53.66.81l15.76-12.25-.11-.15h0l-.13-.15-.99-1.26ZM156,11.68l-13.89,14.4.74.74,14.57-13.72h0c-.46-.49-.92-1-1.4-1.42h-.02ZM153,9l-12.44,15.7c.27.21.54.44.8.67l13.18-15-.23-.21h0l-1.31-1.16ZM149.75,6.67l-10.88,16.81c.29.19.58.38.86.59l11.69-16.23-.42-.33h-.06l-.51-.36h-.08l-.55-.36-.05-.12ZM146.3,4.67l-9.24,17.74c.31.16.61.33.91.5l10.09-17.25-.43-.25h-.06c-.4-.23-.8-.44-1.21-.66l-.06-.08ZM142.68,3l-7.49,18.54.95.41,8.38-18.16h-.32c-.5-.23-1-.44-1.52-.65v-.14ZM138.9,1.7l-5.66,19.18,1,.32,6.59-18.89-1.34-.44h-.15l-.42-.13-.02-.04ZM135,.76l-3.79,19.63,1,.22,4.79-19.43h-.23l-.82-.19h-.23c-.23-.06-.45-.1-.67-.14l-.05-.09ZM131,.19l-1.83,19.91c.35,0,.7.07,1,.12l2.88-19.8-.5-.06h-.21l-.9-.1h-.38l-.06-.07ZM127,0v20h1.06l.94-20h-2Z"/>
    </g>
    <path class="st1" d="M127.07,2c21.92,0,39.69,17.76,39.7,39.68,0,21.92-17.76,39.69-39.68,39.7-21.92,0-39.69-17.76-39.7-39.68.03-21.91,17.77-39.66,39.68-39.7M127.07,0c-23.02,0-41.69,18.68-41.68,41.7,0,23.02,18.68,41.69,41.7,41.68,23.02,0,41.67-18.66,41.68-41.68C168.78,18.68,150.11,0,127.09,0c0,0-.01,0-.02,0Z"/>
    <g class="st2">
      <path class="st1" d="M163.09,41.7c0,19.88-16.12,36-36,36s-36-16.12-36-36S107.21,5.7,127.09,5.7s36,16.12,36,36Z"/>
    </g>
    <g>
      <path class="st3" d="M127.07,69.83c-15.54,0-28.13-12.59-28.13-28.13,0-15.54,12.59-28.13,28.13-28.13,15.54,0,28.13,12.59,28.13,28.13h0c-.01,15.53-12.6,28.12-28.13,28.13Z"/>
      <path class="st0" d="M127.07,16.58c13.88-.03,25.16,11.19,25.19,25.07.03,13.88-11.19,25.16-25.07,25.19-13.88.03-25.16-11.19-25.19-25.07,0-.02,0-.05,0-.07.02-13.87,11.25-25.1,25.12-25.12M127.12,10.58c-17.19-.03-31.15,13.89-31.18,31.08-.03,17.19,13.89,31.15,31.08,31.18,17.19.03,31.15-13.89,31.18-31.08,0-.02,0-.04,0-.06,0-17.19-13.93-31.12-31.12-31.12,0,0,0,0,0,0h.05Z"/>
    </g>
  </g>
  <g id="LS_pressed">
    <g>
      <path class="st0" d="M83.39,41.7c0,23.03-18.67,41.7-41.7,41.7S-.01,64.73-.01,41.7C-.01,18.67,18.66,0,41.69,0c23.02,0,41.69,18.66,41.7,41.68v.02Z"/>
      <path class="st1" d="M41.69,0h-2.01l.94,20h1.07V0ZM37.69.19h-.31c-.56.06-1.12.13-1.67.21l2.84,19.79c.34,0,.69-.09,1-.12L37.69.19ZM33.69.76h-.51c-.48.1-1,.2-1.44.32l4.73,19.43c.34-.08.68-.16,1-.22L33.73.76h-.04ZM29.81,1.76l-.8.24h-.11l-.93.31,6.6,18.88c.32-.11.65-.22,1-.31L29.85,1.71l-.04.05ZM26.07,3c-.62.25-1.23.52-1.83.8l8.38,18.2c.31-.15.63-.29,1-.42L26.07,3ZM22.44,4.7c-.59.31-1.17.63-1.75,1l10.09,17.24c.3-.18.6-.35.91-.51L22.44,4.7ZM19,6.72c-.56.36-1.11.73-1.65,1.13l11.65,16.22c.29-.2.57-.4.87-.59L19,6.72ZM15.75,9.05c-.53.42-1,.85-1.54,1.29l13.19,15c.26-.23.53-.45.8-.67l-12.45-15.62ZM12.75,11.69c-.29.27-.56.55-.84.84h0l-.43.45,14.42,13.84c.23-.25.48-.5.73-.74l-13.89-14.39h.01ZM10,14.6h-.13c-.38.45-.75.9-1.1,1.36h0l15.8,12.26c.21-.27.43-.54.66-.81l-15.23-12.81ZM7.55,17.76l-.16.24h0c-.32.46-.62.92-.92,1.39l16.9,10.7c.18-.29.38-.59.58-.87L7.55,17.76ZM5.41,21.14l-.41.86h0l-.49.93,17.85,9c.16-.31.32-.62.5-.92L5.41,21.14ZM3.61,24.71c-.07.15-.14.3-.2.45h0v.06h0s0,.04,0,.06h0c-.18.42-.36.84-.52,1.27l18.63,7.26c.13-.32.26-.64.4-1L3.61,24.71ZM2.15,28.43c-.09.27-.17.54-.26.81h0c-.06.18-.11.36-.16.55l19.25,5.43c.09-.33.19-.67.3-1L2.28,27.87l-.13.56ZM1.07,32.28c-.07.53-.24,1.06-.34,1.59,0,.13,0,.25-.07.37l19.69,3.55c.06-.34.13-.68.2-1L1.07,32.28ZM.36,36.22c-.06.42-.11.85-.15,1.28H.21c0,.2,0,.39-.05.59l19.93,1.66c0-.35.07-.7.11-1L.36,36.22ZM0,40.2v1h0v.06h0v.24h0v.4l20,.1v-1.09l-20-.71ZM20,43L.07,44.2c0,.57.08,1.14.14,1.7H.21c0,.06,0,.12,0,.18l19.88-2.13c0-.34-.06-.69-.08-1v.05ZM20.22,45.08L.5,48.17h0c.08.53.17,1.05.28,1.57h0v.16l19.59-4c-.06-.34-.13-.68-.18-1l.03.18ZM20.64,47.08L1.27,52.08c.16.65.34,1.29.54,1.93l19.19-5.89c-.1-.33-.2-.67-.28-1l-.08-.04ZM21.25,49.08l-18.77,6.83c.23.63.47,1.25.73,1.87l18.45-7.72c-.13-.32-.26-.64-.37-1l-.04.02ZM22.04,50.98l-18.04,8.62.1.22h0c.18.37.36.73.55,1.1h0c0,.11.11.22.17.33l17.62-9.46c-.16-.31-.32-.62-.47-.93l.07.12ZM23.04,52.81l-17.12,10.31.29.48h0c.24.38.49.77.74,1.14l16.63-11.1c-.19-.29-.38-.58-.55-.88v.05ZM24.19,54.54l-16.05,11.91.22.3h0c.23.3.46.6.7.89l15.5-12.64c-.22-.27-.43-.55-.64-.83l.27.37ZM25.51,56.16l-14.84,13.39c.44.49.9,1,1.37,1.45l14.22-14.06c-.24-.24-.49-.5-.72-.76l-.03-.02ZM27,57.67l-13.52,14.72c.25.23.5.46.76.68h.06l.66.57,12.84-15.28c-.27-.22-.53-.46-.79-.69h0ZM28.62,59l-12.07,16c.3.23.61.46.93.68l.69.48,11.29-16.5c-.28-.2-.57-.4-.84-.61v-.05ZM30.34,60.18l-10.49,17,.1.07h0c.5.3,1,.6,1.52.88h0l9.67-17.51c-.31-.17-.61-.34-.9-.52l.1.08ZM32.16,61.18l-8.81,18,.33.17h.16c.42.2.84.39,1.26.57l8-18.3c-.32-.13-.64-.28-.94-.43h0ZM34.06,62l-7.06,18.73c.62.24,1.25.45,1.89.66l6.12-19-1-.34.05-.05ZM36.06,62.63l-5.24,19.37.24.06h.21c.49.13.99.25,1.5.36l4.23-19.54c-.34-.07-.68-.15-1-.24h.06ZM38.06,63.07l-3.33,19.74c.5.08,1,.16,1.51.22l.47.06,2.36-19.86c-.34,0-.69-.09-1-.15h0ZM40.13,63.32l-1.41,20h2.04l.46-20h-1.09ZM43.29,63.32l-1.05.05.48,20h.69l1.18-.06h.13l-1.43-20h0ZM45.37,63.07c-.34.06-.69.11-1,.15l2.37,19.86c.61-.08,1.22-.16,1.83-.26h.15l-3.37-19.74h.02ZM47.37,62.63c-.33.09-.67.17-1,.24l4.27,19.54h.43l.76-.18h.36l.39-.1-5.2-19.32v-.18ZM49.37,62l-1,.34,6.13,19,.92-.31h.19l.78-.29-7.06-18.74h.04ZM51.28,61.17l-1,.44,7.95,18.39c.35-.15.7-.3,1.05-.47h.15l.62-.29-8.81-18,.04-.07ZM53.09,60.17c-.29.18-.59.36-.89.52l9.66,17.51.18-.1h.1l1.37-.8-10.5-17,.08-.13ZM54.77,59c-.27.21-.56.42-.84.61l11.3,16.5.75-.53h.14l.6-.45-11.95-16.13ZM56.38,57.66c-.26.24-.52.47-.79.69l12.82,15.35h.34l1-.86h0l-13.37-15.18ZM57.85,56.17c-.23.26-.48.52-.72.77l14.23,14.06h0l.93-1h0c.1-.12.21-.24.32-.35,0,0-14.76-13.48-14.76-13.48ZM59.17,54.56c-.21.27-.42.55-.64.82l15.47,12.62h0c.21-.26.42-.52.62-.79h0c.11-.16.23-.31.35-.47,0,0-15.8-12.18-15.8-12.18ZM60.32,52.82c-.17.3-.36.59-.55.88l16.63,11.1.14-.21h0c.31-.47.61-.95.9-1.43h0s-17.12-10.34-17.12-10.34ZM61.32,50.99c-.14.32-.3.63-.46.93l17.62,9.45.27-.51.42-.83h0c.06-.11.11-.22.16-.33l-18.03-8.7h.02ZM62.12,49.09c-.12.32-.24.64-.37,1l18.45,7.71c.1-.23.19-.46.28-.69h0c.13-.36.27-.71.4-1.06l-18.78-6.96h.02ZM62.73,47.09c-.09.33-.18.67-.28,1l19.09,5.91c0-.14.08-.27.13-.41h0c.12-.4.23-.81.33-1.21l-19.37-5,.1-.29ZM63.14,45.09c-.05.34-.11.67-.18,1l19.59,4c.12-.57.22-1.15.32-1.72,0-.08,0-.17,0-.25l-19.75-3.03h.02ZM63.35,43c0,.35-.05.7-.09,1l19.89,2.13c0-.24,0-.47.07-.71h0c0-.38.06-.76.09-1.14v-.06l-19.96-1.22ZM83.35,40.18l-20,.71v1.11l20,.23v-.43h0v-.09h0v-.17h0v-.34h0v-.44h0v-.09h0v-.15h0c0-.09,0-.18,0-.27v-.07ZM83.02,36.18l-19.82,2.63c0,.34.08.69.11,1l19.93-1.66v-.47h0c0-.46-.1-.92-.15-1.37l-.07-.13ZM82.3,32.25l-19.48,4.5.21,1,19.68-3.56c-.06-.31-.12-.63-.19-.95h0l-.07-.32h0v-.06h0l-.06-.24-.09-.37ZM81.22,28.4l-19,6.36c.11.33.21.66.3,1l19.25-5.44h0c-.14-.49-.29-1-.45-1.46h0c0-.1-.07-.19-.1-.29v-.17ZM79.76,24.67l-18.25,8.18c.14.32.28.64.4,1l18.63-7.27c-.24-.62-.5-1.24-.77-1.85v-.06ZM78,21.12l-17.42,9.88c.17.3.33.61.49.92l17.84-9c-.26-.52-.54-1-.82-1.55h0l-.09-.25ZM75.86,17.75l-16.4,11.5c.2.28.4.57.58.86l16.9-10.7-.13-.2h0c-.21-.33-.43-.66-.65-1h0l-.26-.38-.04-.08ZM73.41,14.59l-15.2,13c.23.26.45.53.66.81l15.8-12.27-.15-.13h0l-.12-.15-.99-1.26ZM70.66,11.68l-13.91,14.4c.25.24.5.49.73.74l14.52-13.72h0c-.46-.49-.93-1-1.41-1.42h.07ZM67.62,9l-12.45,15.7c.28.21.55.44.81.67l13.18-15-.23-.21h0c-.41-.35-.83-.7-1.26-1l-.05-.16ZM64.38,6.71l-10.9,16.77c.29.19.58.38.86.59l11.66-16.23-.46-.33h0l-.54-.39h0l-.55-.36-.07-.05ZM60.93,4.71l-9.24,17.72.91.5,10.08-17.27-.44-.25h-.05c-.4-.23-.81-.44-1.21-.66l-.05-.04ZM57.29,3l-7.48,18.56.95.41L59.13,3.81h-.31c-.5-.23-1-.44-1.53-.65v-.16ZM53.52,1.7l-5.66,19.18,1,.32,6.56-18.89-1.33-.44h-.15l-.42-.13v-.04ZM49.63.76l-3.78,19.63,1,.22L51.59,1.18h-.23l-.82-.24h-.24l-.67-.18ZM45.63.19l-1.84,19.91c.34,0,.69.07,1,.12L47.66.42l-.5-.06h-.16l-.9-.1h-.37l-.1-.07ZM41.63,0v20h1.05l.94-20h-1.99Z"/>
    </g>
    <path class="st1" d="M41.69,2c21.92,0,39.69,17.77,39.69,39.69s-17.77,39.69-39.69,39.69S2.01,63.62,2,41.7C2.03,19.79,19.78,2.03,41.69,2M41.69,0C18.67,0,0,18.68.01,41.7c0,23.02,18.68,41.69,41.7,41.68,23.02,0,41.67-18.66,41.68-41.68C83.4,18.68,64.73,0,41.71,0c0,0-.01,0-.02,0Z"/>
    <g class="st2">
      <path class="st0" d="M77.71,41.7c0,19.88-16.12,36-36,36S5.71,61.58,5.71,41.7,21.83,5.7,41.71,5.7s36,16.12,36,36Z"/>
    </g>
    <g>
      <path class="st0" d="M41.69,69.83c-15.54,0-28.13-12.58-28.14-28.12,0-15.54,12.58-28.13,28.12-28.14,15.54,0,28.13,12.58,28.14,28.12h0c-.02,15.54-12.59,28.12-28.12,28.14Z"/>
      <path class="st3" d="M41.69,16.58c13.88,0,25.13,11.25,25.13,25.13s-11.25,25.13-25.13,25.13-25.13-11.25-25.13-25.13c0,0,0,0,0,0,.02-13.87,11.26-25.11,25.13-25.12M41.69,10.58c-17.19,0-31.13,13.93-31.14,31.12,0,17.19,13.93,31.13,31.12,31.14s31.13-13.93,31.14-31.12v-.02c0-17.19-13.93-31.12-31.12-31.12Z"/>
    </g>
  </g>
</svg>