<?xml version="1.0" encoding="UTF-8"?>
<svg id="Layer_1" xmlns="http://www.w3.org/2000/svg" version="1.1" viewBox="0 0 88.93 121.8">
  <!-- Generator: Adobe Illustrator 29.7.1, SVG Export Plug-In . SVG Version: 2.1.1 Build 8)  -->
  <defs>
    <style>
      .st0 {
        fill: #e5e5e5;
      }

      .st1 {
        fill: #a2def9;
      }
    </style>
  </defs>
  <g id="LT_Pressed">
    <path class="st0" d="M74.75,56.08v-.67c.01.22.01.45,0,.67Z"/>
    <path class="st1" d="M49.72,5.47c.4-.32.8-.62,1.21-.9l2.32,110L0,121.79C12.07,5,43,10.76,49.72,5.47Z"/>
    <path class="st1" d="M76.74.14c10.83.41,12.07,11.44,12.19,15.19v1.23c-1.76,31-1.76,62.09,0,93.09-9.93,2.29-38.54,5.35-38.54,5.35,0,0,0-20.91-.68-50.6-.81-37.5,1.22-59.78,1.22-59.78C57.34.09,64.49-.31,76.74.14Z"/>
  </g>
</svg>